<?xml version="1.0" encoding="UTF-8" standalone="no"?>
<!-- Created with Inkscape (http://www.inkscape.org/) -->

<svg
   width="50mm"
   height="27.174999mm"
   viewBox="0 0 50 27.174999"
   version="1.1"
   id="svg1"
   xmlns="http://www.w3.org/2000/svg"
   xmlns:svg="http://www.w3.org/2000/svg">
  <defs
     id="defs1" />
  <g
     id="layer1">
    <path
       style="font-size:28.2486px;font-family:'Standard Symbols PS';-inkscape-font-specification:'Standard Symbols PS';fill:#592c88;stroke-width:0.147128"
       d="M 3.3615834,20.903936 3.389832,10.847435 c 0,-1.5536732 -0.5932206,-2.62712 -1.4689272,-2.62712 -0.6779664,0 -1.0734468,0.8192094 -1.2429384,2.570623 H 0 C 0,9.7457394 0.1129944,9.1242702 0.423729,8.4745524 c 0.5367234,-1.129944 1.6101702,-1.836159 2.7683628,-1.836159 0.847458,0 1.6666674,0.3954804 2.118645,1.0451982 0.2542374,0.3954804 0.3954804,0.7627122 0.5367234,1.6101702 1.553673,-2.118645 2.7118656,-2.8813572 4.3785328,-2.8813572 2.344634,0 4.03955,1.694916 4.03955,4.0677984 v 13.870063 c 0,0.706215 0.169492,1.440678 0.621469,2.82486 h -2.62712 C 11.864412,25.762696 11.69492,24.661 11.69492,23.700548 V 11.299412 c 0,-1.80791 -0.988701,-2.9096054 -2.5988708,-2.9096054 -1.2429384,0 -2.2316394,0.6779664 -3.248589,2.2316394 v 10.28249 z M 27.288166,18.41806 c -0.960452,1.920904 -2.259888,2.853108 -3.983053,2.853108 -2.881357,0 -5.084748,-2.994351 -5.084748,-6.892658 0,-3.502827 1.497176,-6.3841838 3.84181,-7.4011334 0.875707,-0.3672318 1.892656,-0.5367234 3.389832,-0.564972 v 0.7344636 c -1.186441,0.3389832 -1.892656,0.7344636 -2.542374,1.4406786 -1.045198,1.1581926 -1.694916,3.3050862 -1.694916,5.6214712 0,1.807911 0.338983,3.587572 0.875707,4.576273 0.338983,0.649718 1.073446,1.101696 1.80791,1.101696 1.384181,0 2.316385,-1.186441 2.711866,-3.474578 L 26.497205,16.129923 C 25.960482,14.548001 25.79099,13.5593 25.79099,12.259865 c 0,-1.977402 0.564972,-3.1638434 1.497176,-3.1638434 0.960452,0 1.497176,1.1864414 1.497176,3.1355944 0,1.327684 -0.169492,2.288137 -0.706215,3.898307 l -0.112995,0.282486 c 0.395481,2.288137 1.327685,3.446329 2.740115,3.446329 0.706215,0 1.440678,-0.423729 1.779661,-1.073447 0.536724,-1.016949 0.875707,-2.740114 0.875707,-4.576273 0,-2.542374 -0.734464,-4.7457646 -1.949153,-5.8757086 -0.62147,-0.564972 -1.242939,-0.9039552 -2.288137,-1.1864412 V 6.4124046 c 1.694916,0.028249 2.768363,0.2259888 3.700567,0.706215 2.175142,1.129944 3.531075,3.9265554 3.531075,7.2598904 0,3.926555 -2.203391,6.892658 -5.084748,6.892658 -1.723165,0 -3.022601,-0.932204 -3.983053,-2.853108 z M 43.644129,8.361558 40.875766,5.7909354 C 39.604579,4.6044942 39.152601,3.841782 39.152601,2.7965838 c 0,-1.7231646 1.638419,-2.796611418408 4.265539,-2.796611418408 2.994351,0 5.45198,1.242938418408 5.45198,2.796611418408 0,0.6779664 -0.564972,1.1864412 -1.327685,1.1864412 -0.621469,0 -1.129944,-0.282486 -1.977402,-1.129944 L 45.282547,2.5423464 C 44.237349,1.4971482 43.644129,1.1864136 42.59893,1.1864136 c -1.129944,0 -2.033899,0.7344636 -2.033899,1.6666674 0,0.5932206 0.564972,1.3276842 1.666668,2.1751422 0.536723,0.423729 0.988701,0.706215 2.00565,1.3276842 1.581922,0.9322038 2.118645,1.2994356 2.683617,1.7796618 2.033899,1.694916 3.079098,3.7853128 3.079098,6.2146918 0,1.920905 -0.62147,3.446329 -1.949154,4.830511 -1.355933,1.41243 -2.881357,2.090396 -4.576273,2.090396 -3.248589,0 -5.932206,-2.796611 -5.932206,-6.158195 0,-2.118645 1.073447,-4.096047 2.937854,-5.3672336 0.81921,-0.564972 1.694916,-0.9322038 3.163844,-1.3841814 z m 0.79096,0.7344636 c -2.570622,0.564972 -3.841809,2.3446334 -3.841809,5.3954824 0,3.248589 1.355933,5.45198 3.333335,5.45198 1.977402,0 3.305086,-1.864408 3.305086,-4.661019 0,-1.581922 -0.423729,-3.079097 -1.21469,-4.322036 C 45.706276,10.480203 45.367293,10.028225 44.971813,9.6044964 44.887067,9.5197506 44.802321,9.4350048 44.661078,9.2937618 44.491587,9.1525188 44.463338,9.0960216 44.435089,9.0960216 Z"
       id="text1"
       aria-label="nwd" />
  </g>
</svg>
